<svg id="Layer_1" data-name="Layer 1" xmlns="http://www.w3.org/2000/svg" xmlns:xlink="http://www.w3.org/1999/xlink" width="238.8" height="89.23" viewBox="0 0 238.8 89.23">
  <defs>
    <style>
      .cls-1 {
        fill: none;
      }

      .cls-2 {
        fill: #231f20;
      }

      .cls-3 {
        fill: url(#linear-gradient);
      }

      .cls-4 {
        fill: #bebdbd;
        stroke: #bebdbd;
        stroke-miterlimit: 10;
      }

      .cls-5 {
        clip-path: url(#clip-path);
      }

      .cls-6 {
        fill: #7035d6;
      }

      .cls-7 {
        fill: #6f34d6;
      }

      .cls-8 {
        fill: #6e33d6;
      }

      .cls-9 {
        fill: #6d32d6;
      }

      .cls-10 {
        fill: #6c31d6;
      }

      .cls-11 {
        fill: #6b30d6;
      }

      .cls-12 {
        fill: #6a2fd6;
      }

      .cls-13 {
        fill: #692ed6;
      }

      .cls-14 {
        fill: #682dd5;
      }

      .cls-15 {
        fill: #672cd5;
      }

      .cls-16 {
        fill: #662bd5;
      }

      .cls-17 {
        fill: #652ad5;
      }

      .cls-18 {
        fill: #6429d5;
      }

      .cls-19 {
        fill: #6328d5;
      }

      .cls-20 {
        fill: #6227d5;
      }

      .cls-21 {
        fill: #6126d5;
      }

      .cls-22 {
        fill: #6025d5;
      }

      .cls-23 {
        fill: #5f24d5;
      }

      .cls-24 {
        fill: #5e23d5;
      }

      .cls-25 {
        fill: #5d22d5;
      }

      .cls-26 {
        clip-path: url(#clip-path-2);
      }

      .cls-27 {
        clip-path: url(#clip-path-3);
      }

      .cls-28 {
        clip-path: url(#clip-path-4);
      }

      .cls-29 {
        clip-path: url(#clip-path-5);
      }

      .cls-30 {
        fill: #753ad6;
      }

      .cls-31 {
        fill: #7439d6;
      }

      .cls-32 {
        fill: #7338d6;
      }

      .cls-33 {
        fill: #7237d6;
      }

      .cls-34 {
        fill: #7136d6;
      }

      .cls-35 {
        fill: #d7d7d7;
      }

      .cls-36 {
        fill: #282627;
      }
    </style>
    <linearGradient id="linear-gradient" x1="237.91" y1="44.88" x2="190.48" y2="96.4" gradientUnits="userSpaceOnUse">
      <stop offset="0" stop-color="#b97cd9"/>
      <stop offset="1" stop-color="#5d22d5"/>
    </linearGradient>
    <clipPath id="clip-path" transform="translate(-11.8 -31.39)">
      <line class="cls-1" x1="98.82" y1="74.05" x2="172.47" y2="74.05"/>
    </clipPath>
    <clipPath id="clip-path-2" transform="translate(-11.8 -31.39)">
      <path class="cls-1" d="M101.68,76H98.82a2,2,0,0,1,0-4h2.86a2,2,0,1,1,0,4Z"/>
    </clipPath>
    <clipPath id="clip-path-3" transform="translate(-11.8 -31.39)">
      <path class="cls-1" d="M99.68,74.05a2,2,0,0,1,2-2h0a2,2,0,0,1,2,2h0a2,2,0,0,1-2,2h0A2,2,0,0,1,99.68,74.05Z"/>
    </clipPath>
    <clipPath id="clip-path-4" transform="translate(-11.8 -31.39)">
      <path class="cls-1" d="M163.44,76.05h-6.18a2,2,0,0,1,0-4h6.18a2,2,0,0,1,0,4Zm-12.35,0h-6.18a2,2,0,0,1,0-4h6.18a2,2,0,0,1,0,4Zm-12.35,0h-6.18a2,2,0,0,1,0-4h6.18a2,2,0,0,1,0,4Zm-12.36,0h-6.17a2,2,0,0,1,0-4h6.17a2,2,0,0,1,0,4Zm-12.35,0h-6.18a2,2,0,0,1,0-4H114a2,2,0,0,1,0,4Z"/>
    </clipPath>
    <clipPath id="clip-path-5" transform="translate(-11.8 -31.39)">
      <path class="cls-1" d="M172.47,76h-2.86a2,2,0,0,1,0-4h2.86a2,2,0,1,1,0,4Z"/>
    </clipPath>
  </defs>
  <g>
    <path class="cls-2" d="M132.6,71v-33a6.55,6.55,0,0,0-6.54-6.55H18.35a6.56,6.56,0,0,0-6.55,6.55v68a6.55,6.55,0,0,0,6.55,6.54H126.06a6.54,6.54,0,0,0,6.54-6.54V77.1h-2.83v28.79a3.72,3.72,0,0,1-3.71,3.72H18.35a3.73,3.73,0,0,1-3.72-3.72V37.94a3.73,3.73,0,0,1,3.72-3.73H126.06a3.73,3.73,0,0,1,3.71,3.73V71Z" transform="translate(-11.8 -31.39)"/>
    <path class="cls-3" d="M235.77,62.44a16.61,16.61,0,0,0-31.06-6.72,10.49,10.49,0,0,0-2.11-.21A10.36,10.36,0,0,0,193,62.07a12.59,12.59,0,0,0-2.83-.33,12.47,12.47,0,1,0,0,24.93h41.56a12.46,12.46,0,0,0,4.08-24.23Zm-8.24,3.46a2.08,2.08,0,0,1-2.08-2.08,6.24,6.24,0,0,0-6.23-6.24,2.08,2.08,0,1,1,0-4.15,10.4,10.4,0,0,1,10.39,10.39A2.08,2.08,0,0,1,227.53,65.9Z" transform="translate(-11.8 -31.39)"/>
    <path class="cls-4" d="M210.91,111A39.2,39.2,0,1,1,250.1,71.83,39.24,39.24,0,0,1,210.91,111Zm0-76.14a37,37,0,1,0,37,36.95A37,37,0,0,0,210.91,34.88Z" transform="translate(-11.8 -31.39)"/>
    <g>
      <g class="cls-5">
        <path class="cls-6" d="M171.48,74.05Z" transform="translate(-11.8 -31.39)"/>
        <path class="cls-7" d="M170.48,74.05Z" transform="translate(-11.8 -31.39)"/>
        <path class="cls-8" d="M169.48,74.05Z" transform="translate(-11.8 -31.39)"/>
        <path class="cls-9" d="M168.48,74.05Z" transform="translate(-11.8 -31.39)"/>
        <path class="cls-10" d="M167.48,74.05Z" transform="translate(-11.8 -31.39)"/>
        <path class="cls-11" d="M166.48,74.05Z" transform="translate(-11.8 -31.39)"/>
        <path class="cls-12" d="M165.48,74.05Z" transform="translate(-11.8 -31.39)"/>
        <path class="cls-13" d="M164.48,74.05Z" transform="translate(-11.8 -31.39)"/>
        <path class="cls-14" d="M163.48,74.05Z" transform="translate(-11.8 -31.39)"/>
        <path class="cls-15" d="M162.48,74.05Z" transform="translate(-11.8 -31.39)"/>
        <path class="cls-16" d="M161.48,74.05Z" transform="translate(-11.8 -31.39)"/>
        <path class="cls-17" d="M160.48,74.05Z" transform="translate(-11.8 -31.39)"/>
        <path class="cls-18" d="M159.48,74.05Z" transform="translate(-11.8 -31.39)"/>
        <path class="cls-19" d="M158.48,74.05Z" transform="translate(-11.8 -31.39)"/>
        <path class="cls-20" d="M157.48,74.05Z" transform="translate(-11.8 -31.39)"/>
        <path class="cls-21" d="M156.48,74.05Z" transform="translate(-11.8 -31.39)"/>
        <path class="cls-22" d="M155.48,74.05Z" transform="translate(-11.8 -31.39)"/>
        <path class="cls-23" d="M154.48,74.05Z" transform="translate(-11.8 -31.39)"/>
        <path class="cls-24" d="M153.48,74.05Z" transform="translate(-11.8 -31.39)"/>
        <path class="cls-25" d="M152.48,74.05Z" transform="translate(-11.8 -31.39)"/>
        <path class="cls-25" d="M152.48,74.05Z" transform="translate(-11.8 -31.39)"/>
      </g>
      <g>
        <g class="cls-26">
          <rect class="cls-25" x="85.02" y="40.66" width="6.85" height="4"/>
        </g>
        <g class="cls-27">
          <rect class="cls-25" x="87.87" y="40.66" width="4" height="4"/>
        </g>
        <g class="cls-28">
          <rect class="cls-25" x="94.05" y="40.66" width="10.17" height="4"/>
          <rect class="cls-25" x="106.4" y="40.66" width="10.17" height="4"/>
          <rect class="cls-25" x="118.76" y="40.66" width="10.17" height="4"/>
          <polygon class="cls-23" points="141.28 41.37 140.51 40.66 141.28 40.66 141.28 41.37"/>
          <polygon class="cls-24" points="141.28 42.29 139.51 40.66 140.51 40.66 141.28 41.37 141.28 42.29"/>
          <polygon class="cls-25" points="141.28 43.21 138.51 40.66 139.51 40.66 141.28 42.29 141.28 43.21"/>
          <polygon class="cls-25" points="138.51 40.66 141.28 43.21 141.28 44.66 131.11 44.66 131.11 40.66 138.51 40.66"/>
          <polygon class="cls-10" points="153.63 40.77 153.51 40.66 153.63 40.66 153.63 40.77"/>
          <polygon class="cls-11" points="153.63 41.7 152.51 40.66 153.51 40.66 153.63 40.77 153.63 41.7"/>
          <polygon class="cls-12" points="153.63 42.62 151.51 40.66 152.51 40.66 153.63 41.7 153.63 42.62"/>
          <polygon class="cls-13" points="153.63 43.54 150.51 40.66 151.51 40.66 153.63 42.62 153.63 43.54"/>
          <polygon class="cls-14" points="153.63 44.46 149.51 40.66 150.51 40.66 153.63 43.54 153.63 44.46"/>
          <polygon class="cls-15" points="152.85 44.66 148.51 40.66 149.51 40.66 153.63 44.46 153.63 44.66 152.85 44.66"/>
          <polygon class="cls-16" points="151.85 44.66 147.51 40.66 148.51 40.66 152.85 44.66 151.85 44.66"/>
          <polygon class="cls-17" points="150.85 44.66 146.51 40.66 147.51 40.66 151.85 44.66 150.85 44.66"/>
          <polygon class="cls-18" points="149.85 44.66 145.51 40.66 146.51 40.66 150.85 44.66 149.85 44.66"/>
          <polygon class="cls-19" points="148.85 44.66 144.51 40.66 145.51 40.66 149.85 44.66 148.85 44.66"/>
          <polygon class="cls-20" points="147.85 44.66 143.51 40.66 144.51 40.66 148.85 44.66 147.85 44.66"/>
          <polygon class="cls-21" points="146.85 44.66 143.46 41.54 143.46 40.66 143.51 40.66 147.85 44.66 146.85 44.66"/>
          <polygon class="cls-22" points="145.85 44.66 143.46 42.46 143.46 41.54 146.85 44.66 145.85 44.66"/>
          <polygon class="cls-23" points="144.85 44.66 143.46 43.38 143.46 42.46 145.85 44.66 144.85 44.66"/>
          <polygon class="cls-24" points="143.85 44.66 143.46 44.3 143.46 43.38 144.85 44.66 143.85 44.66"/>
          <polygon class="cls-25" points="143.46 44.3 143.85 44.66 143.46 44.66 143.46 44.3"/>
        </g>
        <g class="cls-29">
          <polygon class="cls-30" points="162.66 40.8 162.51 40.66 162.66 40.66 162.66 40.8"/>
          <polygon class="cls-31" points="162.66 41.72 161.51 40.66 162.51 40.66 162.66 40.8 162.66 41.72"/>
          <polygon class="cls-32" points="162.66 42.64 160.51 40.66 161.51 40.66 162.66 41.72 162.66 42.64"/>
          <polygon class="cls-33" points="162.66 43.56 159.51 40.66 160.51 40.66 162.66 42.64 162.66 43.56"/>
          <polygon class="cls-34" points="162.66 44.48 158.51 40.66 159.51 40.66 162.66 43.56 162.66 44.48"/>
          <polygon class="cls-6" points="161.85 44.66 157.51 40.66 158.51 40.66 162.66 44.48 162.66 44.66 161.85 44.66"/>
          <polygon class="cls-7" points="160.85 44.66 156.51 40.66 157.51 40.66 161.85 44.66 160.85 44.66"/>
          <polygon class="cls-8" points="159.85 44.66 155.81 40.94 155.81 40.66 156.51 40.66 160.85 44.66 159.85 44.66"/>
          <polygon class="cls-9" points="158.85 44.66 155.81 41.86 155.81 40.94 159.85 44.66 158.85 44.66"/>
          <polygon class="cls-10" points="157.85 44.66 155.81 42.78 155.81 41.86 158.85 44.66 157.85 44.66"/>
          <polygon class="cls-11" points="156.85 44.66 155.81 43.7 155.81 42.78 157.85 44.66 156.85 44.66"/>
          <polygon class="cls-12" points="155.85 44.66 155.81 44.63 155.81 43.7 156.85 44.66 155.85 44.66"/>
          <polygon class="cls-13" points="155.81 44.63 155.85 44.66 155.81 44.66 155.81 44.63"/>
        </g>
      </g>
    </g>
    <rect class="cls-35" x="11.23" y="20.04" width="36.11" height="2.96"/>
    <rect class="cls-35" x="11.23" y="33.03" width="36.11" height="2.96"/>
    <rect class="cls-35" x="76.88" y="30.49" width="23.13" height="8.05" rx="3.8"/>
    <rect class="cls-35" x="76.88" y="17.49" width="23.13" height="8.05" rx="3.8"/>
    <rect class="cls-36" x="52.31" y="18.58" width="21.87" height="5.86" rx="2.93"/>
    <rect class="cls-36" x="52.31" y="31.58" width="21.87" height="5.86" rx="2.93"/>
    <path class="cls-2" d="M129,120.61H15.37a1.41,1.41,0,1,1,0-2.82H129a1.41,1.41,0,1,1,0,2.82Z" transform="translate(-11.8 -31.39)"/>
  </g>
</svg>
