<svg id="Layer_1" data-name="Layer 1" xmlns="http://www.w3.org/2000/svg" xmlns:xlink="http://www.w3.org/1999/xlink" width="216.16" height="138.49" viewBox="0 0 216.16 138.49">
  <defs>
    <style>
      .cls-1 {
        fill: #231f20;
      }

      .cls-2 {
        fill: #282627;
      }

      .cls-3 {
        fill: #bebdbd;
      }

      .cls-4 {
        fill: url(#linear-gradient);
      }

      .cls-5 {
        fill: url(#linear-gradient-2);
      }

      .cls-6 {
        fill: none;
        stroke: #000;
        stroke-miterlimit: 10;
        stroke-width: 2px;
      }
    </style>
    <linearGradient id="linear-gradient" x1="56.1" y1="33.22" x2="71.4" y2="33.22" gradientUnits="userSpaceOnUse">
      <stop offset="0" stop-color="#b97cd9"/>
      <stop offset="1" stop-color="#5d22d5"/>
    </linearGradient>
    <linearGradient id="linear-gradient-2" x1="187.01" y1="34.07" x2="239.84" y2="34.07" xlink:href="#linear-gradient"/>
  </defs>
  <path class="cls-1" d="M42.27,23.5v4.22M96.83,23.5v4.22h86.11a31.52,31.52,0,0,1,1.24-4.22Zm118,44v67a5.79,5.79,0,0,1-6,5.53H34.27a5.79,5.79,0,0,1-6-5.53V33.26a5.8,5.8,0,0,1,6-5.54h3.36V23.5H34.27c-5.85,0-10.6,4.37-10.6,9.75V134.5c0,5.38,4.75,9.75,10.6,9.75H208.78c5.85,0,10.59-4.37,10.59-9.75V66.82A42.06,42.06,0,0,1,214.79,67.54Z" transform="translate(-23.67 -5.75)"/>
  <path class="cls-2" d="M144.83,67.58v3.06a1.58,1.58,0,0,1-1.62,1.49H116.35a1.56,1.56,0,0,1-1.62-1.49V67.58a1.56,1.56,0,0,1,1.62-1.49h26.86A1.57,1.57,0,0,1,144.83,67.58Z" transform="translate(-23.67 -5.75)"/>
  <path class="cls-3" d="M198.2,65.51v7.15A3.53,3.53,0,0,1,194.56,76H157.42a3.53,3.53,0,0,1-3.65-3.36v-7.1a3.51,3.51,0,0,1,3.65-3.36h33.77A35.18,35.18,0,0,0,198.2,65.51Z" transform="translate(-23.67 -5.75)"/>
  <rect class="cls-3" x="60.25" y="60.34" width="2.81" height="6.04"/>
  <path class="cls-3" d="M99.16,68.51v1.2a2.42,2.42,0,0,1-2.4,2.42H91v-6h5.81A2.41,2.41,0,0,1,99.16,68.51Z" transform="translate(-23.67 -5.75)"/>
  <path class="cls-3" d="M198.2,86.82v7.1a3.53,3.53,0,0,1-3.64,3.36H157.42a3.53,3.53,0,0,1-3.65-3.36v-7.1a3.51,3.51,0,0,1,3.65-3.36h37.14A3.51,3.51,0,0,1,198.2,86.82Z" transform="translate(-23.67 -5.75)"/>
  <path class="cls-2" d="M144.83,89.2v2.73A1.74,1.74,0,0,1,143,93.58h-26.5a1.73,1.73,0,0,1-1.79-1.65V89.2a1.73,1.73,0,0,1,1.79-1.65H143A1.74,1.74,0,0,1,144.83,89.2Z" transform="translate(-23.67 -5.75)"/>
  <path class="cls-3" d="M99.16,90v1.21a2.41,2.41,0,0,1-2.4,2.41H58.43A2.41,2.41,0,0,1,56,91.17V90a2.42,2.42,0,0,1,2.42-2.41H96.76A2.42,2.42,0,0,1,99.16,90Z" transform="translate(-23.67 -5.75)"/>
  <path class="cls-3" d="M198.2,107.41v7.12a3.52,3.52,0,0,1-3.64,3.35H157.42a3.52,3.52,0,0,1-3.65-3.35v-7.12a3.53,3.53,0,0,1,3.65-3.35h37.14A3.52,3.52,0,0,1,198.2,107.41Z" transform="translate(-23.67 -5.75)"/>
  <path class="cls-2" d="M144.83,109.8v2.74a1.73,1.73,0,0,1-1.81,1.64h-26.5a1.73,1.73,0,0,1-1.79-1.64V109.8a1.73,1.73,0,0,1,1.79-1.64H143A1.73,1.73,0,0,1,144.83,109.8Z" transform="translate(-23.67 -5.75)"/>
  <path class="cls-3" d="M99.16,110.56v1.22a2.41,2.41,0,0,1-2.4,2.4H58.43a2.41,2.41,0,0,1-2.42-2.4v-1.22a2.41,2.41,0,0,1,2.42-2.4H96.76A2.41,2.41,0,0,1,99.16,110.56Z" transform="translate(-23.67 -5.75)"/>
  <path class="cls-4" d="M56.1,43.47V31.71l7.63-9,7.67,8.19V43.12l-3.74-.4s-2.29,0-2.78,0-1.39.09-2.17.15-3.18.28-3.52.28a6.09,6.09,0,0,0-1.45.62Z" transform="translate(-23.67 -5.75)"/>
  <path class="cls-5" d="M239.84,34.08a26.36,26.36,0,0,1-8.75,19.64,26.76,26.76,0,0,1-4.37,3.17,26.07,26.07,0,0,1-5.7,2.47,25.65,25.65,0,0,1-4.21.92,27,27,0,0,1-3.39.21,26.44,26.44,0,0,1-25.64-32.77,24.12,24.12,0,0,1,1.44-4.22,25.93,25.93,0,0,1,1.37-2.74,27.61,27.61,0,0,1,3.19-4.35,26.41,26.41,0,0,1,46.06,17.67Z" transform="translate(-23.67 -5.75)"/>
  <path d="M77.59,5.75H49.92a9.14,9.14,0,0,0-9.14,9.13V72.06a9.14,9.14,0,0,0,9.14,9.13H77.59a9.14,9.14,0,0,0,9.14-9.06V14.88A9.14,9.14,0,0,0,77.59,5.75Zm6.34,66.38a6.35,6.35,0,0,1-6.34,6.25H49.92a6.33,6.33,0,0,1-6.33-6.32V14.88a6.33,6.33,0,0,1,6.33-6.32H77.59a6.34,6.34,0,0,1,6.34,6.32Z" transform="translate(-23.67 -5.75)"/>
  <path class="cls-6" d="M85.33,47.51c-.46-.21-.94-.42-1.4-.61a42.53,42.53,0,0,0-29.77-1.38,45.26,45.26,0,0,0-10.57,4.84c-.92.59-1.41,1-1.41,1" transform="translate(-23.67 -5.75)"/>
  <polyline class="cls-6" points="48.77 37.72 48.77 24.73 40.08 15.24 31.33 25.55 31.33 39.5"/>
  <polyline class="cls-6" points="30.48 39.86 30.48 30.95 24.52 24.44 18.51 31.51 18.51 41.09"/>
  <path class="cls-6" d="M71.87,37.21" transform="translate(-23.67 -5.75)"/>
  <line class="cls-6" x1="47.48" y1="28.28" x2="62.46" y2="28.28"/>
</svg>
