<svg id="Layer_1" data-name="Layer 1" xmlns="http://www.w3.org/2000/svg" xmlns:xlink="http://www.w3.org/1999/xlink" width="44.88" height="48.1" viewBox="0 0 44.88 48.1">
  <defs>
    <style>
      .cls-1 {
        fill: url(#linear-gradient);
      }

      .cls-2 {
        fill: #bebdbd;
      }

      .cls-3 {
        fill: #fff;
      }

      .cls-4 {
        fill: url(#linear-gradient-2);
      }

      .cls-5 {
        fill: url(#linear-gradient-3);
      }

      .cls-6 {
        fill: url(#linear-gradient-4);
      }
    </style>
    <linearGradient id="linear-gradient" x1="38.23" y1="11.33" x2="11.75" y2="35.22" gradientUnits="userSpaceOnUse">
      <stop offset="0" stop-color="#b97cd9"/>
      <stop offset="1" stop-color="#5d22d5"/>
    </linearGradient>
    <linearGradient id="linear-gradient-2" x1="42.2" y1="15.74" x2="15.73" y2="39.63" xlink:href="#linear-gradient"/>
    <linearGradient id="linear-gradient-3" x1="50.85" y1="25.31" x2="24.37" y2="49.2" xlink:href="#linear-gradient"/>
    <linearGradient id="linear-gradient-4" x1="44.03" y1="17.76" x2="17.56" y2="41.65" xlink:href="#linear-gradient"/>
  </defs>
  <g>
    <path class="cls-1" d="M35.33,18.63a7.3,7.3,0,0,0-13.66-2.95,4.73,4.73,0,0,0-.93-.1,4.56,4.56,0,0,0-4.24,2.89,5.7,5.7,0,0,0-1.25-.14,5.49,5.49,0,0,0,0,11H33.54a5.49,5.49,0,0,0,1.79-10.67Zm-3.62,1.53a.92.92,0,0,1-.92-.92,2.74,2.74,0,0,0-2.74-2.74.92.92,0,0,1,0-1.83,4.58,4.58,0,0,1,4.57,4.57A.92.92,0,0,1,31.71,20.16Z" transform="translate(-2.43 -1.9)"/>
    <path class="cls-2" d="M24.88,46.78A22.44,22.44,0,1,1,47.32,24.34,22.47,22.47,0,0,1,24.88,46.78Zm0-43.69A21.26,21.26,0,1,0,46.13,24.34,21.28,21.28,0,0,0,24.88,3.09Z" transform="translate(-2.43 -1.9)"/>
    <path class="cls-3" d="M19.42,43a3.28,3.28,0,0,1-3.28,3.28H14a3.29,3.29,0,1,1-.19-1.09h2.37A2.19,2.19,0,0,0,18.33,43m-7.65,5.47a2.19,2.19,0,1,0-2.19-2.19,2.19,2.19,0,0,0,2.19,2.19ZM17.86,43a1.72,1.72,0,0,1-1.72,1.72H14.08a3.74,3.74,0,1,0,.32,2h1.74A3.77,3.77,0,0,0,19.9,43m-9.22,5a1.72,1.72,0,1,1,1.71-1.72A1.71,1.71,0,0,1,10.68,48Z" transform="translate(-2.43 -1.9)"/>
    <path class="cls-3" d="M33.29,39.43a2.19,2.19,0,0,0,2.18,2.2h2.37a3.3,3.3,0,0,1,3.09-2.17h0a3.28,3.28,0,0,1,0,6.56h0a3.28,3.28,0,0,1-3.26-3.29l-2.19,0a3.28,3.28,0,0,1-3.26-3.3m8.73,5.52a2.19,2.19,0,0,0,0-4.37h0a2.19,2.19,0,0,0,0,4.37Zm-9.21-5.52a3.77,3.77,0,0,0,3.74,3.78H37.2a3.77,3.77,0,1,0,.33-2H35.47a1.75,1.75,0,0,1-1.21-.51,1.69,1.69,0,0,1-.49-1.22m7.16,5.51v-.48a1.71,1.71,0,0,1,0-3.42,1.67,1.67,0,0,1,1.21.51,1.74,1.74,0,0,1,.5,1.21,1.71,1.71,0,0,1-1.71,1.7v.48Z" transform="translate(-2.43 -1.9)"/>
    <path class="cls-4" d="M10.68,49.76a3.52,3.52,0,1,1,3.25-4.85h2.21A2,2,0,0,0,18.09,43V29.05h1.57V43a3.53,3.53,0,0,1-3.52,3.52h-2A3.53,3.53,0,0,1,10.68,49.76Zm0-5.46a1.95,1.95,0,1,0,2,1.94A1.94,1.94,0,0,0,10.68,44.3Z" transform="translate(-2.43 -1.9)"/>
    <path class="cls-5" d="M40.91,46.27A3.52,3.52,0,0,1,37.42,43h-2A3.53,3.53,0,0,1,32,39.42l.09-10.37h1.57l-.09,10.37a1.94,1.94,0,0,0,1.94,2h2.21a3.52,3.52,0,0,1,5.75-1.12,3.47,3.47,0,0,1,1,2.49,3.52,3.52,0,0,1-3.51,3.5Zm0-5.47a2,2,0,1,0,2,2,2,2,0,0,0-2-2v0Z" transform="translate(-2.43 -1.9)"/>
    <path class="cls-6" d="M25.14,26V36a3.27,3.27,0,1,0,1.09.19l0-10.19Zm2.16,13.3a2.19,2.19,0,1,1-2.17-2.2A2.19,2.19,0,0,1,27.3,39.27Z" transform="translate(-2.43 -1.9)"/>
  </g>
</svg>
