<svg id="Layer_1" data-name="Layer 1" xmlns="http://www.w3.org/2000/svg" xmlns:xlink="http://www.w3.org/1999/xlink" width="47.47" height="45.96" viewBox="0 0 47.47 45.96">
  <defs>
    <style>
      .cls-1 {
        fill: #282627;
      }

      .cls-2 {
        fill: #bebdbd;
      }

      .cls-3 {
        fill: #fff;
      }

      .cls-4 {
        fill: url(#linear-gradient);
      }
    </style>
    <linearGradient id="linear-gradient" x1="36.48" y1="13.89" x2="47.47" y2="13.89" gradientUnits="userSpaceOnUse">
      <stop offset="0" stop-color="#b97cd9"/>
      <stop offset="1" stop-color="#5d22d5"/>
    </linearGradient>
  </defs>
  <g>
    <path class="cls-1" d="M42.53,19.55H34.64V11.31a.71.71,0,0,0-.71-.72H16.83a.71.71,0,0,0-.71.72v8.24H8.23a.7.7,0,0,0-.7.71V40.9c.38.35.86.75,1.42,1.18V21h7.17V46.26c.46.19.94.36,1.42.52V12H33.22V46.07c.49-.23,1-.46,1.42-.71V21h7.17V39.63a19.36,19.36,0,0,0,1.42-1.72V20.26A.7.7,0,0,0,42.53,19.55ZM28.72,35.32H22a.71.71,0,0,0-.71.71V47.71c.46.07.94.13,1.42.17V36.75H28V47.68c.48-.08,1-.18,1.42-.29V36A.71.71,0,0,0,28.72,35.32Z" transform="translate(-1.66 -2.59)"/>
    <path class="cls-2" d="M23.77,20.58H19.72a.72.72,0,0,0-.72.72v4.06a.71.71,0,0,0,.72.71h4.05a.71.71,0,0,0,.72-.71V21.3A.72.72,0,0,0,23.77,20.58Zm-.71,4.06H20.42V22h2.64Z" transform="translate(-1.66 -2.59)"/>
    <path class="cls-2" d="M31,20.58H27a.71.71,0,0,0-.71.72v4.06a.71.71,0,0,0,.71.71H31a.71.71,0,0,0,.72-.71V21.3A.72.72,0,0,0,31,20.58Zm-.7,4.06H27.7V22h2.64Z" transform="translate(-1.66 -2.59)"/>
    <path class="cls-2" d="M27.41,13.38H23.35a.71.71,0,0,0-.71.71v4.06a.71.71,0,0,0,.71.71h4.06a.71.71,0,0,0,.71-.71V14.09A.71.71,0,0,0,27.41,13.38Zm-.71,4.06H24.06V14.8H26.7Z" transform="translate(-1.66 -2.59)"/>
    <path class="cls-2" d="M40.16,22H36.25a.71.71,0,0,0-.71.71V26.6a.71.71,0,0,0,.71.71h3.91a.71.71,0,0,0,.72-.71V22.68A.71.71,0,0,0,40.16,22Zm-.71,3.91H37V23.39h2.49Z" transform="translate(-1.66 -2.59)"/>
    <path class="cls-2" d="M40.16,28.9H36.25a.71.71,0,0,0-.71.72v3.92a.7.7,0,0,0,.71.7h3.91a.71.71,0,0,0,.72-.7V29.62A.72.72,0,0,0,40.16,28.9Zm-.71,3.92H37v-2.5h2.49Z" transform="translate(-1.66 -2.59)"/>
    <path class="cls-2" d="M40.16,35.85H36.25a.71.71,0,0,0-.71.71v3.91a.71.71,0,0,0,.71.72h3.91l.16,0a.73.73,0,0,0,.54-.53.88.88,0,0,0,0-.17V36.56A.71.71,0,0,0,40.16,35.85Zm-.71,3.92H37v-2.5h2.49Z" transform="translate(-1.66 -2.59)"/>
    <path class="cls-2" d="M14.49,22H10.57a.71.71,0,0,0-.71.71V26.6a.71.71,0,0,0,.71.71h3.92a.71.71,0,0,0,.71-.71V22.68A.71.71,0,0,0,14.49,22Zm-.72,3.91H11.28V23.39h2.49Z" transform="translate(-1.66 -2.59)"/>
    <path class="cls-2" d="M14.49,28.9H10.57a.71.71,0,0,0-.71.72v3.92a.71.71,0,0,0,.71.7h3.92a.71.71,0,0,0,.71-.7V29.62A.71.71,0,0,0,14.49,28.9Zm-.72,3.92H11.28v-2.5h2.49Z" transform="translate(-1.66 -2.59)"/>
    <path class="cls-2" d="M14.49,35.85H10.57a.71.71,0,0,0-.71.71v3.91a.71.71,0,0,0,.71.72h3.92a.71.71,0,0,0,.71-.72V36.56A.71.71,0,0,0,14.49,35.85Zm-.72,3.92H11.28v-2.5h2.49Z" transform="translate(-1.66 -2.59)"/>
    <path class="cls-2" d="M23.77,27.79H19.72a.71.71,0,0,0-.72.71v4.06a.71.71,0,0,0,.72.71h4.05a.71.71,0,0,0,.72-.71V28.5A.71.71,0,0,0,23.77,27.79Zm-.71,4.06H20.42V29.21h2.64Z" transform="translate(-1.66 -2.59)"/>
    <path class="cls-2" d="M31,27.79H27a.71.71,0,0,0-.71.71v4.06a.71.71,0,0,0,.71.71H31a.71.71,0,0,0,.72-.71V28.5A.71.71,0,0,0,31,27.79Zm-.7,4.06H27.7V29.21h2.64Z" transform="translate(-1.66 -2.59)"/>
    <circle class="cls-3" cx="40.75" cy="14.51" r="5.77"/>
    <path class="cls-2" d="M29.43,36V47.39c-.46.11-.94.21-1.42.29V36.75H22.75V47.88c-.48,0-1-.1-1.42-.17V36a.71.71,0,0,1,.71-.71h6.68A.71.71,0,0,1,29.43,36Z" transform="translate(-1.66 -2.59)"/>
    <path class="cls-2" d="M24.64,48.54a23,23,0,1,1,23-23A22.88,22.88,0,0,1,24.64,48.54Zm0-44.72A21.75,21.75,0,1,0,46.38,25.57,21.77,21.77,0,0,0,24.64,3.82Z" transform="translate(-1.66 -2.59)"/>
    <path class="cls-2" d="M49.46,34.1" transform="translate(-1.66 -2.59)"/>
    <circle class="cls-4" cx="41.98" cy="13.89" r="5.5"/>
    <path d="M40.86,40.64a.73.73,0,0,1-.54.53Z" transform="translate(-1.66 -2.59)"/>
  </g>
</svg>
