<svg id="Layer_1" data-name="Layer 1" xmlns="http://www.w3.org/2000/svg" xmlns:xlink="http://www.w3.org/1999/xlink" width="48.2" height="19.24" viewBox="0 0 48.2 19.24">
  <defs>
    <style>
      .cls-1 {
        fill: #231f20;
      }

      .cls-2 {
        fill: #bebdbd;
      }

      .cls-3 {
        fill: url(#linear-gradient);
      }

      .cls-4 {
        fill: #fff;
      }

      .cls-5 {
        fill: #282627;
      }
    </style>
    <linearGradient id="linear-gradient" y1="9.23" x2="17.43" y2="9.23" gradientUnits="userSpaceOnUse">
      <stop offset="0" stop-color="#b97cd9"/>
      <stop offset="1" stop-color="#5d22d5"/>
    </linearGradient>
  </defs>
  <g>
    <path class="cls-1" d="M43.07,31H15.24a6,6,0,0,1,0-12.06H43.07a6,6,0,0,1,0,12.06ZM15.24,19.76a5.22,5.22,0,0,0,0,10.44H43.07a5.22,5.22,0,0,0,0-10.44Z" transform="translate(-0.9 -15.28)"/>
    <rect class="cls-2" x="18.54" y="17.54" width="16.74" height="1.7" rx="0.85"/>
    <rect class="cls-2" x="36.29" y="17.54" width="8.48" height="1.7" rx="0.85"/>
    <rect class="cls-2" x="28.92" y="15.28" width="16.74" height="1.7" rx="0.85" transform="translate(73.69 16.98) rotate(180)"/>
    <rect class="cls-2" x="19.44" y="15.28" width="8.48" height="1.7" rx="0.85" transform="translate(46.45 16.98) rotate(-180)"/>
    <circle class="cls-3" cx="8.72" cy="9.23" r="8.72"/>
    <path class="cls-4" d="M13.17,20.88l1.28,1.28-6,6L4.78,24.46l1.28-1.28,2.41,2.41Z" transform="translate(-0.9 -15.28)"/>
    <rect class="cls-5" x="18.54" y="7.14" width="26.81" height="1.7" rx="0.85"/>
    <rect class="cls-2" x="18.54" y="10.55" width="16.23" height="1.7" rx="0.85"/>
  </g>
</svg>
