<svg id="Layer_1" data-name="Layer 1" xmlns="http://www.w3.org/2000/svg" xmlns:xlink="http://www.w3.org/1999/xlink" width="48.23" height="30.31" viewBox="0 0 48.23 30.31">
  <defs>
    <style>
      .cls-1 {
        fill: #282627;
      }

      .cls-2 {
        fill: #bebdbd;
      }

      .cls-3 {
        fill: url(#linear-gradient);
      }

      .cls-4 {
        fill: none;
        stroke: #7e7d7d;
        stroke-linecap: round;
        stroke-linejoin: round;
        opacity: 0.5;
      }
    </style>
    <linearGradient id="linear-gradient" x1="22.45" y1="18.22" x2="28.58" y2="18.22" gradientUnits="userSpaceOnUse">
      <stop offset="0" stop-color="#b97cd9"/>
      <stop offset="1" stop-color="#5d22d5"/>
    </linearGradient>
  </defs>
  <g>
    <g>
      <path class="cls-1" d="M14.06,24.47h2.61a.55.55,0,0,0,.55-.55V20.35a.55.55,0,0,0-.55-.55H14.06a.55.55,0,0,0-.55.55v3.57A.55.55,0,0,0,14.06,24.47Zm.55-3.57h1.51v2.47H14.61Z" transform="translate(-0.99 -10.38)"/>
      <path class="cls-1" d="M14.06,30.19h2.61a.55.55,0,0,0,.55-.55V26.07a.55.55,0,0,0-.55-.55H14.06a.55.55,0,0,0-.55.55v3.57A.55.55,0,0,0,14.06,30.19Zm.55-3.57h1.51v2.47H14.61Z" transform="translate(-0.99 -10.38)"/>
      <path class="cls-1" d="M7.9,37.67V26.85H9.06V38.32a15.19,15.19,0,0,0,5,1.55h3.78a16.82,16.82,0,0,0,4.27-1.1h-.43V26.85h1.16V38.47l.32-.14c.27-.13.53-.23.78-.33V26.3a.55.55,0,0,0-.55-.55H21.67V17a.55.55,0,0,0-.55-.55H9.61a.55.55,0,0,0-.55.55v8.76H7.35a.55.55,0,0,0-.55.55V36.93C7.12,37.17,7.49,37.42,7.9,37.67Zm8.92,1.1H13.31V33.15a.76.76,0,0,1,.76-.76h2.59a.76.76,0,0,1,.76.76v5.62ZM10.16,17.54H20.57V38.77H18.52V33.15a1.86,1.86,0,0,0-1.86-1.86H14.07a1.86,1.86,0,0,0-1.86,1.86v5.62H10.16Z" transform="translate(-0.99 -10.38)"/>
    </g>
    <path class="cls-2" d="M16.15,11.82a13.75,13.75,0,0,1,12.43,7.94V16.89a15.78,15.78,0,0,0-2.25-2.58,15.16,15.16,0,1,0,2.25,19.87V31.32a13.71,13.71,0,1,1-12.43-19.5Z" transform="translate(-0.99 -10.38)"/>
    <path class="cls-3" d="M28.58,15v6.42a3.85,3.85,0,0,1-2.22.7,3.91,3.91,0,0,1,0-7.82h0A3.85,3.85,0,0,1,28.58,15Z" transform="translate(-0.99 -10.38)"/>
    <path class="cls-2" d="M47.49,35.47H29.6a.36.36,0,0,1-.36-.36V14.92a.36.36,0,0,1,.36-.36H48.86a.36.36,0,0,1,.36.36V33.53a.36.36,0,0,1-.72,0V15.27H30V34.75H47.49a.36.36,0,0,1,0,.72Z" transform="translate(-0.99 -10.38)"/>
    <line class="cls-4" x1="31.61" y1="16.45" x2="43.85" y2="16.45"/>
    <line class="cls-4" x1="43.85" y1="18.82" x2="31.62" y2="18.82"/>
    <line class="cls-4" x1="41.76" y1="21.19" x2="31.62" y2="21.19"/>
    <g>
      <path class="cls-1" d="M37.46,20.48a1,1,0,1,0-1,1A1,1,0,0,0,37.46,20.48Zm-1.69,0a.66.66,0,1,1,1.32,0,.66.66,0,1,1-1.32,0Z" transform="translate(-0.99 -10.38)"/>
      <path class="cls-1" d="M35.81,23.9l2.1-1.78,1.54,1.54a.18.18,0,0,0,.27,0,.19.19,0,0,0,0-.26l-.53-.52L40.89,21,43,22.93a.19.19,0,0,0,.27,0,.19.19,0,0,0,0-.26l-2.23-2a.24.24,0,0,0-.14-.05.27.27,0,0,0-.12.06l-1.82,2-.88-.88a.19.19,0,0,0-.26,0L35.34,23.9" transform="translate(-0.99 -10.38)"/>
    </g>
    <rect class="cls-4" x="31.61" y="7.64" width="12.66" height="6.2"/>
  </g>
</svg>
