<svg id="Layer_1" data-name="Layer 1" xmlns="http://www.w3.org/2000/svg" xmlns:xlink="http://www.w3.org/1999/xlink" width="47.59" height="37.31" viewBox="0 0 47.59 37.31">
  <defs>
    <style>
      .cls-1 {
        fill: #bebdbd;
      }

      .cls-2 {
        fill: #282627;
      }

      .cls-3 {
        fill: url(#linear-gradient);
      }

      .cls-4 {
        fill: #fff;
      }
    </style>
    <linearGradient id="linear-gradient" x1="22.85" y1="25.07" x2="48.8" y2="25.07" gradientUnits="userSpaceOnUse">
      <stop offset="0" stop-color="#b97cd9"/>
      <stop offset="1" stop-color="#5d22d5"/>
    </linearGradient>
  </defs>
  <g>
    <path class="cls-1" d="M19.86,44.73A18.65,18.65,0,1,1,38.51,26.08,18.68,18.68,0,0,1,19.86,44.73Zm0-36.29A17.64,17.64,0,1,0,37.5,26.08,17.66,17.66,0,0,0,19.86,8.44Z" transform="translate(-1.2 -7.43)"/>
    <path class="cls-2" d="M7.78,26.18a7.14,7.14,0,0,0,2.63,5.4A10.53,10.53,0,0,0,16.49,34a19.25,19.25,0,0,0,6.94,2.37l1.48.19-.85-1.22a8.46,8.46,0,0,1-1.14-2.77,7.46,7.46,0,0,0,4-6.37c0-4.31-4.28-7.83-9.56-7.83S7.78,21.87,7.78,26.18Zm1.32,0c0-3.59,3.7-6.51,8.24-6.51s8.25,2.92,8.25,6.51a6.32,6.32,0,0,1-3.7,5.44l-.42.21.07.47a9.77,9.77,0,0,0,.75,2.5,16,16,0,0,1-5.22-2l-.15-.1h-.18C12.46,32.43,9.1,29.58,9.1,26.18Z" transform="translate(-1.2 -7.43)"/>
    <path class="cls-3" d="M48.8,23.36a9.65,9.65,0,0,1-3.57,7.32A14.19,14.19,0,0,1,37,33.94a26.14,26.14,0,0,1-9.42,3.21l-1,.13-1,.12,1.16-1.65A11.33,11.33,0,0,0,28.25,32a10.15,10.15,0,0,1-5.4-8.63c0-5.86,5.82-10.63,13-10.63S48.8,17.5,48.8,23.36Z" transform="translate(-1.2 -7.43)"/>
    <g>
      <path class="cls-4" d="M35.22,18.77a2.94,2.94,0,0,0-3,2.81h1.52a1.55,1.55,0,0,1,3.06,0v.22a2.11,2.11,0,0,1-.83,1.62,4.41,4.41,0,0,0-1.46,3.39H36a3,3,0,0,1,1-2.34,3.59,3.59,0,0,0,1.25-2.67v-.22A2.94,2.94,0,0,0,35.22,18.77Z" transform="translate(-1.2 -7.43)"/>
      <rect class="cls-4" x="33.23" y="20.24" width="1.6" height="1.29"/>
    </g>
  </g>
</svg>
