<svg id="Layer_1" data-name="Layer 1" xmlns="http://www.w3.org/2000/svg" xmlns:xlink="http://www.w3.org/1999/xlink" width="47.34" height="47.34" viewBox="0 0 47.34 47.34">
  <defs>
    <style>
      .cls-1 {
        fill: #282627;
      }

      .cls-2 {
        fill: url(#linear-gradient);
      }

      .cls-3 {
        fill: #bebdbd;
      }
    </style>
    <linearGradient id="linear-gradient" x1="12.82" y1="29.41" x2="37.39" y2="29.41" gradientUnits="userSpaceOnUse">
      <stop offset="0" stop-color="#b97cd9"/>
      <stop offset="1" stop-color="#5d22d5"/>
    </linearGradient>
  </defs>
  <g>
    <path class="cls-1" d="M4.3,33.29a26.41,26.41,0,0,0,3.16,3.36c0-.1,0-.2,0-.3a8.9,8.9,0,0,1,5.71-8.26,1.76,1.76,0,0,0,.31-3.15,5.29,5.29,0,1,1,6.38-8.37,10.63,10.63,0,0,1,3.58-1.26A8.82,8.82,0,0,0,9.07,25.58l.37.48A12.48,12.48,0,0,0,4.3,33.29Zm41.61,0a12.5,12.5,0,0,0-5.14-7.24,8.82,8.82,0,0,0-13.63-11.2l-.35.45a10.31,10.31,0,0,1,3.57,1.27,5.29,5.29,0,0,1,7.16,7.78,5.42,5.42,0,0,1-.77.59,1.76,1.76,0,0,0,.31,3.15,8.9,8.9,0,0,1,5.71,8.26c0,.1,0,.2,0,.3A27.15,27.15,0,0,0,45.91,33.29Z" transform="translate(-1.44 -1.73)"/>
    <path class="cls-2" d="M37.39,40.39a12.5,12.5,0,0,0-5.45-9,8.84,8.84,0,1,0-13.67,0,12.5,12.5,0,0,0-5.45,9,27.44,27.44,0,0,0,3.48,1.5,2,2,0,0,1,0-.24A8.9,8.9,0,0,1,22,33.39a1.76,1.76,0,0,0,1-2.28,1.71,1.71,0,0,0-.72-.87,5.24,5.24,0,0,1-2.48-4.48,5.3,5.3,0,1,1,10.59,0,5.24,5.24,0,0,1-2.48,4.48,1.76,1.76,0,0,0,.31,3.15,8.9,8.9,0,0,1,5.71,8.26c0,.08,0,.16,0,.24A26.84,26.84,0,0,0,37.39,40.39Z" transform="translate(-1.44 -1.73)"/>
    <path class="cls-3" d="M25.1,49.07A23.67,23.67,0,1,1,48.77,25.4,23.69,23.69,0,0,1,25.1,49.07Zm0-46A22.32,22.32,0,1,0,47.42,25.4,22.34,22.34,0,0,0,25.1,3.08Z" transform="translate(-1.44 -1.73)"/>
  </g>
</svg>
