<svg id="Layer_1" data-name="Layer 1" xmlns="http://www.w3.org/2000/svg" viewBox="0 0 264.35 54.11"><defs><style>.cls-1{fill:#753adf;}.cls-2{fill:#00cdd0;}</style></defs><path d="M230.88,306.69l2.67-3.85a16.68,16.68,0,0,0,10.25,3.46c4.47,0,7.37-1.8,7.37-4.56,0-2.54-2.37-3.9-7.67-4.6-8.33-1.14-11.87-3.9-11.87-9.29,0-5.12,4.86-8.76,11.87-8.76a19,19,0,0,1,11.35,3.81l-2.59,3.64a14.59,14.59,0,0,0-8.72-2.94c-4,0-6.88,1.8-6.88,4.3s2.19,3.85,7.36,4.6c8.68,1.27,12.32,3.9,12.32,9.11,0,5.65-5,9.37-12.54,9.37A21.49,21.49,0,0,1,230.88,306.69Z" transform="translate(-165.12 -269.57)"/><path d="M262.39,302.92v-10h-4.08v-4.16h4.08v-5.65l4.86-.53v6.18h6.22v4.16h-6.22v10c0,2.19,1,3.42,3,3.42a6.63,6.63,0,0,0,2.72-.66l1.36,3.95a11.16,11.16,0,0,1-4.87,1.05C265,310.68,262.39,308.09,262.39,302.92Z" transform="translate(-165.12 -269.57)"/><path d="M276.54,299.55c0-6.66,4.38-11.3,10.73-11.3a9.88,9.88,0,0,1,7.89,3.37l0-2.89h4.38v21.64H295.2l0-2.89a10,10,0,0,1-7.89,3.37C280.92,310.85,276.54,306.21,276.54,299.55Zm11.52,6.83c3.9,0,6.62-2.8,6.62-6.83s-2.72-6.83-6.62-6.83-6.61,2.8-6.61,6.83S284.16,306.38,288.06,306.38Z" transform="translate(-165.12 -269.57)"/><path d="M311.81,310.24l-8.54-21.51h5.26l3.76,9.86,2.24,6.22,2.5-6.22,4.07-9.86h5.26l-13.59,31.63h-5.34Z" transform="translate(-165.12 -269.57)"/><path d="M331.14,279.7h21.77v3.16h-18.4v10.43h17.57v3.15H334.51v10.73H353.3v3.2H331.14Z" transform="translate(-165.12 -269.57)"/><path d="M370.18,306.43l-3.55-5-3.55,5-2.85,3.94h-3.81l8.1-11.21L357,288.73h3.9l3.24,4.51,2.45,3.59,5.83-8.1h3.85l-7.57,10.38,8.15,11.26h-3.9Z" transform="translate(-165.12 -269.57)"/><path d="M380.74,288.73h2.93l.05,3.77c1.62-2.59,4.82-4.21,8.58-4.21,6.4,0,10.87,4.64,10.87,11.26s-4.47,11.26-10.87,11.26A10.05,10.05,0,0,1,384,307v13.67h-3.24ZM392,307.79c4.65,0,8-3.33,8-8.24s-3.33-8.24-8-8.24-8,3.33-8,8.24S387.31,307.79,392,307.79Z" transform="translate(-165.12 -269.57)"/><path d="M420.21,307.54a7.76,7.76,0,0,1-2,.25,7.9,7.9,0,0,1-8.05-8.24.55.55,0,0,1,0-.18l-3-2.42a12.26,12.26,0,0,0-.27,2.6,10.84,10.84,0,0,0,11.29,11.26,12,12,0,0,0,4.86-1Z" transform="translate(-165.12 -269.57)"/><path class="cls-1" d="M185.87,291.22s2.25.76,2.33,1.95l2.16-1.34-2-.85Z" transform="translate(-165.12 -269.57)"/><path class="cls-1" d="M200.51,289.56l-.8-.42c1.15.09,2.25.07,4.5.35,4.5.55,9.17,3.3,10.66,7.77a12.37,12.37,0,0,1-1.14,9.79h0c.42-3.91.36-8.42-2.19-11.55a13.55,13.55,0,0,0-11.15-4.44" transform="translate(-165.12 -269.57)"/><path class="cls-1" d="M185.49,303.09c6.89-3.49,20.34-6.15,26.48-.2a7.44,7.44,0,0,1,2,3.45,9.52,9.52,0,0,0-2.64-2.65c-6.28-4.07-18.55-1.46-25.82-.6Z" transform="translate(-165.12 -269.57)"/><path class="cls-1" d="M211.76,303.39c-1.77,1.48-6.12,1.54-8.41,1.5l.86-.6a7.44,7.44,0,0,1-.22.82c-2.57,7-20.34,13.71-33.74,11.07,8.38,1.65,29.22-4.38,32.38-12.31l.25-.69.61.09c1.36.19,2.77.34,4.15.43a10.21,10.21,0,0,0,4.12-.31Z" transform="translate(-165.12 -269.57)"/><path class="cls-1" d="M200.07,294.81a2.74,2.74,0,0,1,2-2.66,1.66,1.66,0,0,1,2,.6,1.64,1.64,0,0,1-.71,2.08,3,3,0,0,1-3.36,0Zm0,0a7.75,7.75,0,0,0,2.16-1.63.76.76,0,0,0,.44.92h.09a3.87,3.87,0,0,0-.94.07,7.7,7.7,0,0,0-1.75.63Z" transform="translate(-165.12 -269.57)"/><path class="cls-1" d="M178.86,293s2.58-3.3,4.4-2.54a17.48,17.48,0,0,0,1.87.7,19.67,19.67,0,0,0,5.71.88l-.13-1c-.19.08-.33.16-.49.24a4.5,4.5,0,0,0-2.28,2.64,5,5,0,0,1,1.43-1.23,17.59,17.59,0,0,1,4.14-1.34l-2.63-.33a45.35,45.35,0,0,1-5.41-1.06c-.53-.13-2.07-.6-1.72-.5C183.75,289.45,181.08,288.07,178.86,293Z" transform="translate(-165.12 -269.57)"/><circle class="cls-1" cx="20.23" cy="23.61" r="2.86"/><path class="cls-1" d="M202.52,304.71s-6.28-1.23-11.2.36c0,0,7.12-2.76,11.73-1.76" transform="translate(-165.12 -269.57)"/><path class="cls-1" d="M188,282.58" transform="translate(-165.12 -269.57)"/><path class="cls-1" d="M200.34,291" transform="translate(-165.12 -269.57)"/><path class="cls-2" d="M184.25,321.39a27.06,27.06,0,1,0-7.46-44.62s8.45-6.58,18.36-5.95c14.2.9,25.81,11.57,25.81,25.8s-11.62,24.79-25.81,25.81C187.12,323,184.25,321.39,184.25,321.39Z" transform="translate(-165.12 -269.57)"/><path class="cls-1" d="M201.27,289.23s-3.79-12.33-25.16-10.51c-9,.58-11,1.83-11,1.83s17.31-4.4,27.39,2c4.53,2.89,6.36,8.42,6.36,8.42l1.52.06,1.79-1.29" transform="translate(-165.12 -269.57)"/><path class="cls-1" d="M429.46,299.55a10.75,10.75,0,0,1-6.41,10.29l-2.84-2.3a8.21,8.21,0,1,0-10-8.17l-3-2.42c1.05-5.11,5.22-8.67,11-8.67C425,288.28,429.46,293.11,429.46,299.55Z" transform="translate(-165.12 -269.57)"/></svg>